<?xml version="1.0" standalone="no"?>
<!DOCTYPE svg PUBLIC "-//W3C//DTD SVG 20010904//EN"
 "http://www.w3.org/TR/2001/REC-SVG-20010904/DTD/svg10.dtd">
<svg version="1.0" xmlns="http://www.w3.org/2000/svg"
 width="3173.000000pt" height="3173.000000pt" viewBox="0 0 3173.000000 3173.000000"
 preserveAspectRatio="xMidYMid meet">
<metadata>
Created by potrace 1.14, written by Peter Selinger 2001-2017
</metadata>
<g transform="translate(0.000000,3173.000000) scale(0.100000,-0.100000)"
fill="#000000" stroke="none">
<path d="M17200 31715 c0 -5 472 -1425 1049 -3155 l1048 -3145 2692 -3 c2142
-2 2691 -5 2692 -15 0 -6 1 -1431 1 -3164 l1 -3153 21 -1 c22 0 6296 0 6307 1
3 0 6 2845 6 6323 l0 6322 -6909 0 c-4599 0 -6908 -3 -6908 -10z"/>
<path d="M7362 31702 c-27 -3 -32 -7 -27 -20 4 -9 2380 -7138 5282 -15842
2901 -8704 5277 -15827 5279 -15829 6 -6 9084 -7 9094 -1 6 3 -10495 31530
-10553 31684 -3 8 -8994 16 -9075 8z"/>
<path d="M4894 12558 c-3 -4 -500 -1490 -1105 -3301 -604 -1810 -1480 -4433
-1946 -5827 -465 -1394 -911 -2728 -990 -2964 -78 -236 -141 -431 -140 -433 2
-2 3685 -2 8184 -1 l8180 3 -1061 3183 c-584 1750 -1066 3186 -1073 3190 -6 4
-1206 7 -2667 6 -1461 0 -2656 2 -2656 6 0 5 952 2853 983 2940 10 28 71 215
73 225 2 6 24 71 49 145 26 74 48 142 50 150 2 8 205 613 450 1344 245 731
445 1332 445 1336 0 10 -6770 8 -6776 -2z"/>
</g>
</svg>
